<svg xmlns="http://www.w3.org/2000/svg" viewBox="0 0 80 80" fill="none" stroke="#C9A96E" stroke-width="0.8">
  <path d="M0 0 L24 0 L26 18 L18 28 L0 26 Z"/>
  <path d="M24 0 L52 0 L54 16 L46 22 L26 18 Z"/>
  <path d="M52 0 L80 0 L80 22 L62 28 L54 16 Z"/>
  <path d="M0 26 L18 28 L24 44 L8 50 L0 48 Z"/>
  <path d="M18 28 L26 18 L46 22 L48 38 L24 44 Z"/>
  <path d="M26 18 L46 22 L54 16 L62 28 L48 38 Z"/>
  <path d="M46 22 L54 16 L62 28 L72 30 L60 42 L48 38 Z"/>
  <path d="M62 28 L80 22 L80 50 L72 30 Z"/>
  <path d="M0 48 L8 50 L24 44 L30 58 L10 64 L0 62 Z"/>
  <path d="M24 44 L48 38 L60 42 L62 56 L40 62 L30 58 Z"/>
  <path d="M48 38 L60 42 L72 30 L80 50 L80 64 L62 56 Z"/>
  <path d="M0 62 L10 64 L30 58 L34 70 L18 78 L0 80 Z"/>
  <path d="M10 64 L30 58 L40 62 L42 74 L34 70 Z"/>
  <path d="M40 62 L62 56 L66 68 L54 80 L42 74 Z"/>
  <path d="M62 56 L80 64 L80 80 L66 68 Z"/>
  <path d="M34 70 L42 74 L54 80 L46 80 L34 80 L18 78 Z"/>
  <path d="M18 78 L34 80 L46 80 L54 80 L66 68 L80 80"/>
</svg>
